<svg width="78" height="78" viewBox="0 0 78 78" fill="none" xmlns="http://www.w3.org/2000/svg">
<rect width="78" height="78" rx="21" fill="#635AFF"/>
<path d="M65.8962 34.7433C66.0111 35.8419 65.1046 36.7403 64 36.7403H47.5H31C29.8954 36.7403 28.9889 35.8419 29.1038 34.7433C30.0879 25.3322 37.9487 18 47.5 18C57.0513 18 64.9121 25.3323 65.8962 34.7433Z" fill="white"/>
<path d="M13.1038 43.2956C12.989 42.197 13.8955 41.2986 15 41.2986L31.5 41.2986L48 41.2987C49.1046 41.2987 50.0111 42.1971 49.8962 43.2956C48.9121 52.7067 41.0513 60.0389 31.5 60.0389C21.9487 60.0389 14.0879 52.7066 13.1038 43.2956Z" fill="white"/>
</svg>
